<svg width="48" height="48" viewBox="0 0 48 48" fill="none" xmlns="http://www.w3.org/2000/svg">
<path d="M8.18709 32.4454C7.67612 30.29 7.40477 28.0341 7.40477 25.7109C7.40477 14.0121 14.2862 4.01373 23.9999 0C33.7138 4.01373 40.5952 14.0121 40.5952 25.7109C40.5952 28.0341 40.324 30.29 39.8131 32.4454L44.6022 36.5743C45.0282 36.9415 45.1243 37.5511 44.831 38.0252L39.0056 47.4416C38.6687 47.9861 37.9406 48.1627 37.3792 47.836C37.2963 47.7877 37.2195 47.7295 37.151 47.6631L31.8066 42.4797C31.362 42.0485 30.7589 41.8062 30.1302 41.8062H17.8698C17.241 41.8062 16.638 42.0485 16.1934 42.4797L10.8491 47.6631C10.3861 48.1121 9.63559 48.1121 9.17268 47.6631C9.10414 47.5966 9.04428 47.5223 8.99443 47.4416L3.16897 38.0252C2.87568 37.5511 2.97187 36.9415 3.39791 36.5743L8.18709 32.4454ZM23.9999 25.7109C26.6187 25.7109 28.7414 23.6521 28.7414 21.1122C28.7414 18.5726 26.6187 16.5137 23.9999 16.5137C21.3814 16.5137 19.2584 18.5726 19.2584 21.1122C19.2584 23.6521 21.3814 25.7109 23.9999 25.7109Z" fill="url(#paint0_linear_7158_7360)"/>
<defs>
<linearGradient id="paint0_linear_7158_7360" x1="24" y1="0" x2="24" y2="48" gradientUnits="userSpaceOnUse">
<stop stop-color="#57C6E9"/>
<stop offset="1" stop-color="#1F94B9"/>
</linearGradient>
</defs>
</svg>
