<svg width="32" height="32" viewBox="0 0 32 32" fill="none" xmlns="http://www.w3.org/2000/svg">
<path d="M14.9667 4.85867L27.1333 17.0253L23.7453 26.452L1.88533 31.9933L12.6413 21.2373C12.86 21.296 13.0893 21.3267 13.3267 21.3267C14.8 21.3267 15.9933 20.1333 15.9933 18.66C15.9933 17.1867 14.8 15.9933 13.3267 15.9933C11.8533 15.9933 10.66 17.1867 10.66 18.66C10.66 18.9 10.692 19.1333 10.752 19.3547L0 30.108L5.52533 8.248L14.968 4.85867H14.9667ZM21.3267 0L17.6027 3.724L28.2693 14.3907L31.9933 10.6667L21.3267 0Z" fill="url(#paint0_linear_7158_7049)"/>
<defs>
<linearGradient id="paint0_linear_7158_7049" x1="15.9967" y1="0" x2="15.9967" y2="31.9933" gradientUnits="userSpaceOnUse">
<stop stop-color="#57C6E9"/>
<stop offset="1" stop-color="#1F94B9"/>
</linearGradient>
</defs>
</svg>
